# xmcd
#
# Track frame offsets: 
#        150
#        17220
#        34762
#        53855
#        70590
#        85312
#        100520
#        114650
#        134935
#        151542
#        166645
#        182134
#        200162
#        215635
#        230725
#        247702
#        263602
#        279707
#        295755
#        321825
#
# Disc length: 4492 seconds
#
# Revision: 4
# Processed by: cddbd v1.5.2PL0 Copyright (c) Steve Scherf et al.
# Submitted via: ExactAudioCopy v0.99pb4
#
DISCID=1d118a14
DTITLE=Various Artist - Hitzone 14
DYEAR=2001
DGENRE=
TTITLE0=Shaggy ft. RikRok - It wasn't me
TTITLE1=Judith - You
TTITLE2=Robbie Williams - Supreme
TTITLE3=Def Rhymz - Schudden
TTITLE4=Safri Duo - Played-a-live
TTITLE5=Backstreet Boys - The call
TTITLE6=Birgit - I know
TTITLE7=R. Kelly - The storm is over now
TTITLE8=Lionel Richie - Angel
TTITLE9=Mauro Picotti - Komodo
TTITLE10=Westlife - I lay my love on you
TTITLE11=Ricky Martin - She bangs
TTITLE12=Rui da Silva ft. Cassandra - Touch me
TTITLE13=Milk Inc. - Livin' a lie
TTITLE14=Texas - Inner smile
TTITLE15=Mystikal ft. Nivea - Danger
TTITLE16=ATC - Around the world
TTITLE17=Gigi d'Agostino - La passion
TTITLE18=Slimme Schemer ft. Tido - Jelle
TTITLE19=The Cooldown Café ft. DJ Stefan - Hey Baby!
EXTD=
EXTT0=
EXTT1=
EXTT2=
EXTT3=
EXTT4=
EXTT5=
EXTT6=
EXTT7=
EXTT8=
EXTT9=
EXTT10=
EXTT11=
EXTT12=
EXTT13=
EXTT14=
EXTT15=
EXTT16=
EXTT17=
EXTT18=
EXTT19=
PLAYORDER=
